<svg width="26" height="25" viewBox="0 0 26 25" fill="none" xmlns="http://www.w3.org/2000/svg">
<path d="M21.8125 3.63757C20.6663 2.4802 19.3013 1.56253 17.7969 0.93802C16.2925 0.313516 14.6789 -0.00532896 13.05 6.73689e-05C6.225 6.73689e-05 0.6625 5.56257 0.6625 12.3876C0.6625 14.5751 1.2375 16.7001 2.3125 18.5751L0.5625 25.0001L7.125 23.2751C8.9375 24.2626 10.975 24.7876 13.05 24.7876C19.875 24.7876 25.4375 19.2251 25.4375 12.4001C25.4375 9.08757 24.15 5.97507 21.8125 3.63757ZM13.05 22.6876C11.2 22.6876 9.3875 22.1876 7.8 21.2501L7.425 21.0251L3.525 22.0501L4.5625 18.2501L4.3125 17.8626C3.28443 16.2214 2.73866 14.3242 2.7375 12.3876C2.7375 6.71257 7.3625 2.08757 13.0375 2.08757C15.7875 2.08757 18.375 3.16257 20.3125 5.11257C21.272 6.0674 22.0324 7.20325 22.5495 8.45423C23.0667 9.70521 23.3302 11.0464 23.325 12.4001C23.35 18.0751 18.725 22.6876 13.05 22.6876ZM18.7 14.9876C18.3875 14.8376 16.8625 14.0876 16.5875 13.9751C16.3 13.8751 16.1 13.8251 15.8875 14.1251C15.675 14.4376 15.0875 15.1376 14.9125 15.3376C14.7375 15.5501 14.55 15.5751 14.2375 15.4126C13.925 15.2626 12.925 14.9251 11.75 13.8751C10.825 13.0501 10.2125 12.0376 10.025 11.7251C9.85 11.4126 10 11.2501 10.1625 11.0876C10.3 10.9501 10.475 10.7251 10.625 10.5501C10.775 10.3751 10.8375 10.2376 10.9375 10.0376C11.0375 9.82507 10.9875 9.65007 10.9125 9.50007C10.8375 9.35007 10.2125 7.82507 9.9625 7.20007C9.7125 6.60007 9.45 6.67507 9.2625 6.66257H8.6625C8.45 6.66257 8.125 6.73757 7.8375 7.05007C7.5625 7.36257 6.7625 8.11257 6.7625 9.63757C6.7625 11.1626 7.875 12.6376 8.025 12.8376C8.175 13.0501 10.2125 16.1751 13.3125 17.5126C14.05 17.8376 14.625 18.0251 15.075 18.1626C15.8125 18.4001 16.4875 18.3626 17.025 18.2876C17.625 18.2001 18.8625 17.5376 19.1125 16.8126C19.375 16.0876 19.375 15.4751 19.2875 15.3376C19.2 15.2001 19.0125 15.1376 18.7 14.9876Z" fill="#709D67"/>
</svg>
